<svg width="351" height="466" viewBox="0 0 351 466" fill="none" xmlns="http://www.w3.org/2000/svg">
<path d="M95.9913 137.434C92.6512 144.546 88.8755 151.657 85.0997 158.623L83.2118 161.235L92.6512 200.274L110.804 199.548C114.87 180.972 117.484 156.301 114.87 145.852C126.488 129.453 126.343 121.035 128.085 67.919C127.504 66.758 129.537 65.0165 129.683 64.1458C130.409 61.8237 127.65 65.0165 127.069 64.8714C125.471 64.2909 126.778 60.953 125.036 60.3725C123.293 59.9371 122.276 62.6945 122.276 64.0006C122.422 65.1616 122.857 67.0483 123.293 68.0642C109.352 87.3659 95.8461 120.89 95.9913 137.434Z" fill="#FF695F"/>
<path d="M4.64707 315.794C-5.51842 358.897 1.01654 402.29 21.4928 455.841C22.2189 457.583 23.2354 460.921 22.5093 462.662C22.0736 464.258 21.2023 465.71 23.9615 466C24.9781 466.145 26.7207 465.419 27.4468 464.984C28.899 463.968 29.1895 462.082 28.4634 460.34C30.206 460.921 34.2722 460.921 31.0774 459.179C29.6251 458.308 26.1398 457.147 25.7042 455.116C23.6711 426.09 40.5168 397.355 31.3678 368.62C28.7538 355.849 37.9028 342.498 48.2135 328.711L25.7042 300.121L6.24451 309.119L4.64707 315.794Z" fill="#FF695F"/>
<path d="M324.134 48.4721C324.57 46.4404 326.312 37.2974 327.619 37.0072C328.926 36.4267 335.316 53.1162 334.009 55.7284C333.428 56.7443 329.217 56.3089 328.345 60.8078C322.101 76.3363 317.599 92.4453 312.516 108.554C308.741 122.486 294.364 152.673 279.261 150.786C280.422 170.233 273.161 203.467 264.303 224.8L256.606 228.138C256.606 228.138 234.968 219.286 234.387 218.56C233.806 217.834 222.77 190.115 222.77 190.115L225.819 173.861C257.187 134.242 292.331 87.8013 324.134 48.4721Z" fill="#FF695F"/>
<path d="M273.887 303.894C278.244 302.298 285.07 306.361 288.845 304.184C274.323 320.293 277.373 344.529 261.398 360.348C260.672 360.929 257.332 361.364 256.606 361.799C252.685 363.831 257.042 368.185 258.349 371.378C258.93 373.119 260.527 379.215 262.125 379.215C263.722 379.215 263.867 375.151 264.158 373.845C264.448 371.813 264.884 366.734 269.386 364.121L268.224 364.702C309.176 347.432 349.403 308.393 350.855 285.753C352.597 258.47 313.242 248.311 289.571 243.086C286.667 261.372 281.149 283.141 273.887 303.894Z" fill="#FF695F"/>
<path d="M176.734 311.15C198.953 308.683 227.271 306.652 249.055 308.538C255.735 308.974 265.174 308.248 271.419 311.876C288.7 262.388 289.862 243.086 289.862 243.086C281.584 242.506 274.759 241.78 265.61 241.635C267.207 235.83 268.369 225.381 269.966 219.576L269.676 217.689C269.676 222.333 267.498 225.671 261.689 224.365C248.328 221.898 235.694 200.855 230.611 190.26C227.707 184.455 226.545 178.65 225.819 172.265C210.571 191.421 197.501 208.982 182.253 228.138L172.087 243.086C172.087 243.086 168.457 283.867 168.457 285.608C168.457 287.35 169.619 304.62 170.054 306.797C170.49 309.119 176.734 311.15 176.734 311.15Z" fill="#FFFDEE"/>
<path d="M234.678 198.533C242.229 209.127 261.834 220.592 267.788 215.512C267.788 215.512 270.983 216.093 269.095 222.333C266.772 230.025 254.718 222.043 251.814 219.721C244.117 213.916 239.325 206.95 234.678 198.533Z" fill="#002A4C"/>
<path d="M327.765 51.5198C329.652 53.4064 329.072 59.0663 329.072 59.0663C330.524 56.4541 333.719 56.5992 334.154 55.7284C335.461 53.1162 329.072 36.5718 327.765 37.0072C326.458 37.2974 324.715 46.4404 324.279 48.4721C323.553 51.0844 325.877 49.6331 327.765 51.5198Z" fill="#002A4C"/>
<path d="M286.376 261.372C284.779 271.241 276.792 303.459 278.825 303.749H274.033L286.376 261.372Z" fill="#002A4C"/>
<path d="M261.834 365.137C260.672 363.976 260.091 362.235 261.544 360.348C260.818 360.929 257.477 361.364 256.751 361.799C252.83 363.831 257.187 368.185 258.494 371.378C259.075 373.119 260.672 379.215 262.27 379.215C263.867 379.215 264.012 375.151 264.303 373.845C264.448 371.958 264.884 367.75 268.224 365.137C266.481 364.267 262.851 366.298 261.834 365.137Z" fill="#002A4C"/>
<path d="M40.2263 340.031C40.2263 340.031 49.8109 344.965 53.5867 343.368C55.6198 342.788 56.0554 338.87 55.9102 333.064C55.9102 327.259 12.6342 300.266 12.6342 300.266L18.5883 309.409C18.5883 309.409 46.0352 326.824 44.8734 333.21C43.7116 339.595 44.8734 333.21 44.8734 333.21L40.2263 340.031Z" fill="#002A4C"/>
<path d="M54.7484 342.498C55.765 338.87 59.8312 315.94 60.2669 312.457C76.9673 312.457 76.5316 331.323 122.857 317.246C150.885 308.683 171.797 314.343 182.108 321.454C182.108 321.454 178.477 316.23 177.46 313.327C174.266 304.184 173.249 289.962 172.668 279.368C171.797 262.243 174.266 243.957 182.108 228.429C170.199 228.574 129.828 225.816 108.48 220.737C108.626 216.964 113.563 210.578 115.451 206.514V206.079C107.899 196.501 102.091 185.761 95.5556 175.893C92.506 171.394 88.7302 164.138 83.3571 161.671C55.0389 213.335 17.8622 260.647 5.5184 312.747C14.3769 297.509 60.5573 331.758 54.7484 342.498Z" fill="#007F6E"/>
<path d="M193.871 309.699C193.871 309.699 190.676 323.341 184.722 322.76C181.381 322.47 178.622 316.665 176.734 311.15C173.249 300.556 170.199 272.547 174.556 250.343C179.058 228.138 174.701 249.617 174.701 249.617C174.701 249.617 174.847 294.316 183.705 310.425L193.871 309.699Z" fill="#002A4C"/>
<path d="M31.8035 232.347C31.8035 232.347 36.3053 237.717 38.1932 236.991C40.0811 236.41 38.3384 236.701 38.3384 236.701L41.0976 232.492C41.2428 232.637 41.2429 232.782 41.2429 233.218C42.2594 234.669 42.5498 236.701 43.2759 238.442C43.8568 240.184 46.0352 243.812 45.0186 245.553C44.7282 246.279 43.1307 246.714 42.4046 247.15C38.9193 249.036 34.2722 251.213 30.206 251.649L31.2226 249.182C31.2226 249.182 23.9615 243.812 18.2979 241.78C14.6673 240.329 31.8035 232.347 31.8035 232.347Z" fill="#FF695F"/>
<path d="M286.812 261.372C282.31 280.093 294.364 286.769 308.45 287.93C307.288 288.511 308.45 287.93 307.288 288.511C301.625 291.123 295.235 295.912 288.99 304.329C288.99 304.329 287.538 306.216 278.825 303.894C278.825 303.749 277.082 302.298 286.812 261.372Z" fill="url(#paint0_linear)"/>
<path d="M296.252 339.305C276.501 353.963 261.253 364.412 261.253 364.412L266.046 367.604C266.772 366.298 267.933 364.992 269.531 364.121L268.369 364.702C309.321 347.432 349.548 308.393 351 285.753C351.145 283.867 351 282.125 350.71 280.384C349.693 291.123 315.856 324.792 296.252 339.305Z" fill="url(#paint1_linear)"/>
<path d="M238.599 283.286C206.94 284.592 177.46 287.205 176.444 278.642C178.477 300.411 183.269 309.264 183.85 310.28C204.762 308.248 229.595 306.797 249.055 308.393C255.735 308.828 265.174 308.103 271.419 311.731L283.472 271.531C278.825 284.447 268.224 282.125 238.599 283.286Z" fill="url(#paint2_linear)"/>
<path d="M283.327 271.676C283.617 270.805 283.908 269.935 284.198 268.919L283.327 271.676Z" fill="url(#paint3_linear)"/>
<path d="M265.465 241.78C265.465 241.78 234.532 240.619 214.056 245.263C214.056 245.263 255.735 231.476 256.897 222.914C256.897 222.914 267.062 228.283 268.95 223.494L265.465 241.78Z" fill="url(#paint4_linear)"/>
<path d="M268.369 147.884C260.237 168.201 244.843 208.401 237.727 202.161C260.672 222.478 267.643 215.367 267.643 215.367H267.788C274.904 194.614 280.277 167.621 279.261 150.786C294.364 152.528 308.741 122.341 312.516 108.554C317.599 92.4453 322.101 76.4815 328.345 60.8078C329.217 56.3089 333.428 56.7443 334.009 55.7284C334.3 55.0028 334.154 53.4064 333.719 51.5198C331.105 51.5198 329.072 51.6649 329.072 51.6649C329.072 51.6649 276.647 127.421 268.369 147.884Z" fill="url(#paint5_linear)"/>
<path d="M55.1841 340.321C55.0389 341.192 54.7484 342.062 54.7484 342.498C55.0389 341.917 55.1841 341.192 55.1841 340.321Z" fill="url(#paint6_linear)"/>
<path d="M99.7671 313.763C75.3699 318.262 60.993 294.896 60.993 294.896L60.2669 312.457C76.9673 312.457 76.5316 331.323 122.857 317.246C140.574 311.876 155.532 312.166 166.714 314.924C146.093 307.667 124.164 309.264 99.7671 313.763Z" fill="url(#paint7_linear)"/>
<path d="M23.6711 312.892C33.5461 320.003 21.0571 344.82 21.7832 360.638C22.5093 376.602 15.103 419.415 25.7042 455.116C23.6711 426.09 40.5168 397.355 31.3678 368.62C29.0443 357.301 36.0149 345.545 44.8734 333.21L45.0186 333.064C45.3091 332.484 45.1638 328.711 23.6711 312.892Z" fill="url(#paint8_linear)"/>
<path d="M94.5391 174.296L112.111 193.453L110.804 199.839L94.5391 174.296Z" fill="#002A4C"/>
<path d="M108.335 220.592L84.0832 217.109C84.0832 217.109 106.592 219.14 111.82 212.465L108.335 220.592Z" fill="#002A4C"/>
<path d="M91.199 169.072L112.111 193.453C115.451 175.893 117.194 155.43 114.87 145.997C126.488 129.598 126.343 121.18 128.085 68.0642C127.504 66.9032 129.537 65.1616 129.683 64.2909C130.264 62.2591 128.376 64.436 127.359 64.8714C125.326 72.5631 119.953 93.8966 114.434 116.101C107.464 143.82 95.4104 175.748 91.199 169.072Z" fill="url(#paint9_linear)"/>
<path d="M84.0832 217.109C84.0832 217.109 105.576 205.499 106.738 193.453L115.161 205.644L108.335 220.592L84.0832 217.109Z" fill="url(#paint10_linear)"/>
<path d="M38.3384 234.669C38.3384 234.669 42.9855 241.925 41.6785 244.973C40.3715 248.021 30.6417 245.989 27.0112 246.279C23.3806 246.569 30.3513 238.732 30.4965 238.442C30.7869 238.152 38.3384 234.669 38.3384 234.669Z" fill="url(#paint11_linear)"/>
<path d="M29.1895 246.424C29.1895 246.424 36.1601 245.989 38.048 244.102C39.9359 242.216 39.6454 239.458 39.6454 239.458" fill="#002A4C"/>
<path d="M31.2226 227.993C40.5168 234.088 43.5664 241.78 33.5461 244.973C30.206 245.989 26.8659 247.295 22.3641 244.973C17.717 242.506 12.7795 239.893 13.9412 233.943C15.103 228.719 20.6214 221.462 31.2226 227.993Z" fill="#FF695F"/>
<path d="M24.8328 225.526C28.0277 229.735 17.717 233.363 21.3475 236.991C22.3641 238.297 25.9946 239.313 26.1398 241.345C25.559 242.216 24.8328 240.909 23.8163 240.764C21.638 240.329 20.6214 241.925 21.7832 243.667C22.5093 244.683 26.2851 244.828 25.4137 246.279C23.5259 247.005 20.331 246.279 19.3144 245.699C14.8126 243.231 11.9081 241.054 11.0368 236.41C10.3107 232.927 11.6177 227.993 14.8126 225.671C16.8457 223.93 23.9615 221.317 25.4137 225.526" fill="#002A4C"/>
<defs>
<linearGradient id="paint0_linear" x1="278.392" y1="283.248" x2="308.378" y2="282.792" gradientUnits="userSpaceOnUse">
<stop stop-color="white" stop-opacity="0"/>
<stop offset="0.0518963" stop-color="#EDEEF1" stop-opacity="0.0259481"/>
<stop offset="0.1351" stop-color="#D7D8DF" stop-opacity="0.0675645"/>
<stop offset="0.2335" stop-color="#C6C8D1" stop-opacity="0.1168"/>
<stop offset="0.3553" stop-color="#BBBCC8" stop-opacity="0.1776"/>
<stop offset="0.526" stop-color="#B4B6C3" stop-opacity="0.263"/>
<stop offset="1" stop-color="#B2B4C1" stop-opacity="0.5"/>
</linearGradient>
<linearGradient id="paint1_linear" x1="260.632" y1="324.761" x2="354.438" y2="323.334" gradientUnits="userSpaceOnUse">
<stop stop-color="white" stop-opacity="0"/>
<stop offset="0.0518963" stop-color="#EDEEF1" stop-opacity="0.0259481"/>
<stop offset="0.1351" stop-color="#D7D8DF" stop-opacity="0.0675645"/>
<stop offset="0.2335" stop-color="#C6C8D1" stop-opacity="0.1168"/>
<stop offset="0.3553" stop-color="#BBBCC8" stop-opacity="0.1776"/>
<stop offset="0.526" stop-color="#B4B6C3" stop-opacity="0.263"/>
<stop offset="1" stop-color="#B2B4C1" stop-opacity="0.5"/>
</linearGradient>
<linearGradient id="paint2_linear" x1="176.573" y1="293.32" x2="284.489" y2="291.679" gradientUnits="userSpaceOnUse">
<stop stop-color="white" stop-opacity="0"/>
<stop offset="0.0518963" stop-color="#EDEEF1" stop-opacity="0.0259481"/>
<stop offset="0.1351" stop-color="#D7D8DF" stop-opacity="0.0675645"/>
<stop offset="0.2335" stop-color="#C6C8D1" stop-opacity="0.1168"/>
<stop offset="0.3553" stop-color="#BBBCC8" stop-opacity="0.1776"/>
<stop offset="0.526" stop-color="#B4B6C3" stop-opacity="0.263"/>
<stop offset="1" stop-color="#B2B4C1" stop-opacity="0.5"/>
</linearGradient>
<linearGradient id="paint3_linear" x1="176.913" y1="271.904" x2="284.158" y2="270.273" gradientUnits="userSpaceOnUse">
<stop stop-color="white" stop-opacity="0"/>
<stop offset="0.0518963" stop-color="#EDEEF1" stop-opacity="0.0259481"/>
<stop offset="0.1351" stop-color="#D7D8DF" stop-opacity="0.0675645"/>
<stop offset="0.2335" stop-color="#C6C8D1" stop-opacity="0.1168"/>
<stop offset="0.3553" stop-color="#BBBCC8" stop-opacity="0.1776"/>
<stop offset="0.526" stop-color="#B4B6C3" stop-opacity="0.263"/>
<stop offset="1" stop-color="#B2B4C1" stop-opacity="0.5"/>
</linearGradient>
<linearGradient id="paint4_linear" x1="213.872" y1="234.394" x2="269.039" y2="233.555" gradientUnits="userSpaceOnUse">
<stop stop-color="white" stop-opacity="0"/>
<stop offset="0.0518963" stop-color="#EDEEF1" stop-opacity="0.0259481"/>
<stop offset="0.1351" stop-color="#D7D8DF" stop-opacity="0.0675645"/>
<stop offset="0.2335" stop-color="#C6C8D1" stop-opacity="0.1168"/>
<stop offset="0.3553" stop-color="#BBBCC8" stop-opacity="0.1776"/>
<stop offset="0.526" stop-color="#B4B6C3" stop-opacity="0.263"/>
<stop offset="1" stop-color="#B2B4C1" stop-opacity="0.5"/>
</linearGradient>
<linearGradient id="paint5_linear" x1="236.772" y1="134.947" x2="347.77" y2="133.259" gradientUnits="userSpaceOnUse">
<stop stop-color="white" stop-opacity="0"/>
<stop offset="0.0518963" stop-color="#EDEEF1" stop-opacity="0.0259481"/>
<stop offset="0.1351" stop-color="#D7D8DF" stop-opacity="0.0675645"/>
<stop offset="0.2335" stop-color="#C6C8D1" stop-opacity="0.1168"/>
<stop offset="0.3553" stop-color="#BBBCC8" stop-opacity="0.1776"/>
<stop offset="0.526" stop-color="#B4B6C3" stop-opacity="0.263"/>
<stop offset="1" stop-color="#B2B4C1" stop-opacity="0.5"/>
</linearGradient>
<linearGradient id="paint6_linear" x1="54.7027" y1="341.435" x2="55.2282" y2="341.427" gradientUnits="userSpaceOnUse">
<stop stop-color="white" stop-opacity="0"/>
<stop offset="0.0518963" stop-color="#EDEEF1" stop-opacity="0.0259481"/>
<stop offset="0.1351" stop-color="#D7D8DF" stop-opacity="0.0675645"/>
<stop offset="0.2335" stop-color="#C6C8D1" stop-opacity="0.1168"/>
<stop offset="0.3553" stop-color="#BBBCC8" stop-opacity="0.1776"/>
<stop offset="0.526" stop-color="#B4B6C3" stop-opacity="0.263"/>
<stop offset="1" stop-color="#B2B4C1" stop-opacity="0.5"/>
</linearGradient>
<linearGradient id="paint7_linear" x1="61.1895" y1="307.948" x2="163.419" y2="312.766" gradientUnits="userSpaceOnUse">
<stop stop-color="#B2B4C1" stop-opacity="0.5"/>
<stop offset="0.474" stop-color="#B4B6C3" stop-opacity="0.263"/>
<stop offset="0.6447" stop-color="#BBBCC8" stop-opacity="0.1776"/>
<stop offset="0.7665" stop-color="#C6C8D1" stop-opacity="0.1168"/>
<stop offset="0.8649" stop-color="#D7D8DF" stop-opacity="0.0675645"/>
<stop offset="0.9481" stop-color="#EDEEF1" stop-opacity="0.0259481"/>
<stop offset="1" stop-color="white" stop-opacity="0"/>
</linearGradient>
<linearGradient id="paint8_linear" x1="19.4907" y1="384.082" x2="49.5838" y2="383.625" gradientUnits="userSpaceOnUse">
<stop stop-color="white" stop-opacity="0"/>
<stop offset="0.0518963" stop-color="#EDEEF1" stop-opacity="0.0259481"/>
<stop offset="0.1351" stop-color="#D7D8DF" stop-opacity="0.0675645"/>
<stop offset="0.2335" stop-color="#C6C8D1" stop-opacity="0.1168"/>
<stop offset="0.3553" stop-color="#BBBCC8" stop-opacity="0.1776"/>
<stop offset="0.526" stop-color="#B4B6C3" stop-opacity="0.263"/>
<stop offset="1" stop-color="#B2B4C1" stop-opacity="0.5"/>
</linearGradient>
<linearGradient id="paint9_linear" x1="90.5463" y1="128.947" x2="130.725" y2="128.336" gradientUnits="userSpaceOnUse">
<stop stop-color="white" stop-opacity="0"/>
<stop offset="0.0518963" stop-color="#EDEEF1" stop-opacity="0.0259481"/>
<stop offset="0.1351" stop-color="#D7D8DF" stop-opacity="0.0675645"/>
<stop offset="0.2335" stop-color="#C6C8D1" stop-opacity="0.1168"/>
<stop offset="0.3553" stop-color="#BBBCC8" stop-opacity="0.1776"/>
<stop offset="0.526" stop-color="#B4B6C3" stop-opacity="0.263"/>
<stop offset="1" stop-color="#B2B4C1" stop-opacity="0.5"/>
</linearGradient>
<linearGradient id="paint10_linear" x1="83.9881" y1="207.43" x2="115.298" y2="206.954" gradientUnits="userSpaceOnUse">
<stop stop-color="white" stop-opacity="0"/>
<stop offset="0.0518963" stop-color="#EDEEF1" stop-opacity="0.0259481"/>
<stop offset="0.1351" stop-color="#D7D8DF" stop-opacity="0.0675645"/>
<stop offset="0.2335" stop-color="#C6C8D1" stop-opacity="0.1168"/>
<stop offset="0.3553" stop-color="#BBBCC8" stop-opacity="0.1776"/>
<stop offset="0.526" stop-color="#B4B6C3" stop-opacity="0.263"/>
<stop offset="1" stop-color="#B2B4C1" stop-opacity="0.5"/>
</linearGradient>
<linearGradient id="paint11_linear" x1="25.908" y1="240.893" x2="41.9194" y2="240.65" gradientUnits="userSpaceOnUse">
<stop stop-color="white" stop-opacity="0"/>
<stop offset="0.0518963" stop-color="#EDEEF1" stop-opacity="0.0259481"/>
<stop offset="0.1351" stop-color="#D7D8DF" stop-opacity="0.0675645"/>
<stop offset="0.2335" stop-color="#C6C8D1" stop-opacity="0.1168"/>
<stop offset="0.3553" stop-color="#BBBCC8" stop-opacity="0.1776"/>
<stop offset="0.526" stop-color="#B4B6C3" stop-opacity="0.263"/>
<stop offset="1" stop-color="#B2B4C1" stop-opacity="0.5"/>
</linearGradient>
</defs>
</svg>
