<svg width="473" height="553" viewBox="0 0 473 553" fill="none" xmlns="http://www.w3.org/2000/svg">
<path fill-rule="evenodd" clip-rule="evenodd" d="M11.4902 309.574C18.1062 310.223 24.7222 310.872 31.3382 311.521C63.0241 313.941 94.6975 318.994 126.141 322.027C126.924 320.753 128.456 320.963 129.386 321.848C132.524 321.574 136.04 319.177 138.883 321.67C138.975 321.657 139.067 321.642 139.16 321.633C144.221 311.925 147.719 301.57 151.114 291.202C153.281 284.827 156.196 278.656 161.583 274.376C170.778 267.997 191.844 255.061 202.64 255.604C202.819 253.672 203.72 251.681 205.2 250.395C201.939 244.838 214.978 241.212 215.897 241.856C215.308 223.291 224.045 207.169 243.31 203.472C260.569 199.877 285.117 199.273 294.399 217.301C295.42 217.186 305.85 217.132 306.859 217.245C308.428 215.259 325.659 234.081 318.597 240.633C381.735 268.55 417.636 265.219 435.111 343.701C437.474 351.074 437.646 359.142 440.141 366.35C449.016 387.065 456.215 409.124 458.007 431.664C462.334 432.772 462.832 440.398 457.82 441.501C455.905 441.923 454.304 442.499 452.908 443.592C453.999 462.063 449.53 504.259 446.714 504.129C440.971 522.395 415.358 527.55 397.225 521.131C400.351 527.009 397.225 530.705 397.225 533.846C331.976 536.313 260.633 534.892 195.403 538.276C187.059 538.158 178.282 540.325 170.052 539.078C165.033 537.875 165.025 529.987 170.116 529.011L147.87 524.182C148.367 523.995 138.701 517.568 131.394 505.558C124.594 492.123 129.222 475.906 126.141 461.292C102.074 459.325 77.6086 458.484 53.8048 454.41C50.5592 464.116 36.5095 452.508 32.0437 447.838C32.0492 447.831 32.0548 447.824 32.0603 447.817C29.8991 447.226 28.1659 445.201 28.1079 442.804C26.5922 440.639 26.2741 437.589 27.7276 435.497C21.0657 397.074 10.9095 357.843 7.23859 319.059C5.9409 318.771 4.7188 318.203 3.68269 317.326L3.76665 317.243C2.01119 315.287 1.66982 311.91 4.59636 310.248C6.95707 308.906 8.92819 309.322 11.4902 309.574Z" fill="white"/>
<path fill-rule="evenodd" clip-rule="evenodd" d="M293.197 213.114C291.231 208.176 284.585 210.096 285.326 215.283C285.769 218.391 287.472 221.673 289.002 224.396C290.247 226.613 291.668 228.777 293.594 230.438C290.165 233.636 286.606 236.716 282.957 239.641C278.975 242.833 274.788 245.774 270.46 248.478C266.665 250.849 262.699 252.95 259.121 255.655C255.795 258.17 252.765 261.195 251.223 265.144C249.58 269.349 250.294 273.692 251.504 277.895L251.643 278.37C252.878 282.533 255.018 287.552 252.051 291.474C250.541 293.471 248.346 294.885 246.451 296.482C244.766 297.901 243.185 299.444 241.735 301.101C238.572 304.714 236 308.78 234.377 313.31L234.232 313.722C232.841 317.732 231.824 322.645 233.704 326.582C234.244 327.71 235.983 327.344 236.285 326.245C236.968 323.755 236.932 321.148 237.505 318.623C238.101 315.997 239.092 313.505 240.387 311.147C242.893 306.585 246.286 302.688 250.295 299.393L251.495 298.418C254.623 295.852 257.496 293.131 258.131 288.885C258.81 284.342 256.99 280.015 255.819 275.716C255.003 272.719 254.736 269.847 255.618 267.139C256.695 268.897 258.165 270.565 259.328 272.053C261.643 275.017 263.98 277.964 266.311 280.915C268.701 283.942 271.032 287.017 273.251 290.171C274.244 291.582 275.227 293.002 276.206 294.422C276.942 295.49 277.968 296.557 278.771 297.646C278.576 298.229 278.591 298.901 278.944 299.378C283.2 305.125 289.254 293.133 290.833 290.103C294.049 283.933 296.442 277.379 299.668 271.21C303.011 264.815 306.817 258.591 311.06 252.753C313.626 249.222 316.503 245.905 318.85 242.262C324.381 247.275 331.659 250.635 338.344 253.682C345.689 257.03 353.319 259.765 360.85 262.669L363.074 263.532C376.05 268.594 389.342 274.154 400.127 283.145C412.8 293.71 420.298 308.435 425.879 323.683C432.305 341.237 437.621 359.265 442.576 377.281C445.112 386.499 447.518 395.759 449.78 405.049C451.773 413.233 453.425 421.498 455.732 429.598C451.053 429.432 445.716 431.243 441.721 431.766C423.512 434.148 405.549 437.946 388.358 444.521C386.235 445.333 385.621 447.452 386.083 449.171C384.859 448.825 383.635 448.475 382.41 448.131C383.752 446.077 383.112 442.403 383.006 440.126L383 439.969C382.891 436.934 382.562 433.896 382.348 430.867C381.941 425.093 381.412 419.361 380.708 413.619L380.528 412.184C379.73 405.937 379.141 399.654 378.27 393.418L378.167 392.705C378.585 391.109 379.071 389.533 379.581 387.964C380.94 383.785 382.859 379.851 384.54 375.803C384.739 375.326 384.059 375.053 383.742 375.338C380.894 377.899 378.632 381.147 376.815 384.544C376.784 384.384 376.756 384.223 376.723 384.063L376.516 383.043C376.004 380.555 375.382 377.938 373.855 375.92C373.693 375.706 373.371 375.661 373.217 375.92C371.756 378.392 371.593 381.522 371.368 384.334C371.114 387.516 371.082 390.738 371.126 393.928C371.214 400.163 371.654 406.415 372.004 412.64C372.348 418.757 373.022 424.796 373.892 430.853L374.057 431.988C374.483 434.871 374.831 437.79 375.391 440.653L375.55 441.433C375.85 442.852 376.034 444.854 376.631 446.517C361.277 442.237 345.9 438.054 330.493 433.945C319.358 430.975 308.212 428.049 297.07 425.104C296.482 424.045 295.749 423.056 294.836 422.172C291.826 419.258 287.836 417.958 284.177 420.201C283.88 420.384 283.855 420.85 284.177 421.026C284.879 421.409 285.581 421.802 286.271 422.211L279.58 420.4C274.58 419.045 269.519 417.353 264.401 416.409C254.974 411.758 244.834 408.393 234.903 405.066L233.733 404.67C228.648 402.938 223.389 400.998 218.135 400.037C214.289 399.334 209.774 400.183 208.228 404.121C206.27 405.411 204.428 406.926 202.65 408.417C201.365 409.494 200.133 410.64 198.88 411.755L198.649 411.957C197.625 412.846 196.813 413.441 196.562 414.854C196.432 415.585 196.896 416.572 197.797 416.475C200.555 416.18 202.797 412.986 204.667 411.078C206.111 409.604 207.568 408.079 208.886 406.459C209.655 406.877 210.708 406.802 211.198 405.876C213.735 401.074 220.685 404.401 224.531 405.54L230.04 407.17C232.794 407.986 235.547 408.806 238.296 409.64C245.85 411.933 253.367 414.499 260.989 416.605C260.307 417.354 260.402 418.687 261.697 419.194C267.664 421.534 274.21 422.744 280.408 424.35C284.322 425.365 288.233 426.385 292.143 427.412C292.814 428.497 293.296 429.726 293.499 431.155C294.245 436.412 292.806 442.477 291.404 447.561L291.193 448.319C290.041 452.407 288.346 457.417 284.817 459.999C283.956 460.628 282.859 461.066 281.754 461.165C274.847 457.612 267.941 454.059 261.03 450.512C259.75 449.855 258.567 450.745 258.28 451.802C255.843 451.403 253.412 450.773 251.198 450.022C247.478 448.759 244.572 446.35 241.085 444.684C234.336 441.462 227.444 445.42 221.401 448.43L220.009 449.114C217.299 450.428 211.662 452.952 210.361 449.358C209.104 445.881 213.08 442.165 215.648 440.6C218.708 438.734 222.272 437.736 225.731 436.904C227.706 436.429 229.706 436.042 231.717 435.759C233.998 435.438 236.355 435.486 238.552 434.746C239.643 434.379 239.811 432.646 238.552 432.36C235.17 431.591 231.134 432.43 227.606 433.287L225.761 433.742C222.206 434.614 218.617 435.708 215.379 437.447C213.024 438.713 210.539 440.635 208.915 442.987C207.506 441.678 205.751 441.722 203.923 442.208L202.931 442.484C201.293 442.937 199.965 443.25 198.371 442.935C198.157 441.776 197.942 440.617 197.71 439.457C195.439 428.058 192.947 416.703 190.198 405.408C185.457 385.926 179.97 366.658 173.785 347.587L173.164 345.681C171.737 341.319 170.589 336.567 168.289 332.559C166.114 328.77 162.629 326.587 158.488 325.432C153.789 324.12 148.851 323.434 144.058 322.548C142.988 322.35 141.916 322.163 140.846 321.969C141.75 320.337 142.426 318.484 143.034 317.062L143.14 316.815C144.447 313.838 145.62 310.807 146.754 307.76L147.601 305.47C149.648 299.954 151.76 294.528 154.637 289.369C157.665 283.94 161.683 279.501 166.691 275.827C176.902 268.336 189.209 264.515 199.112 256.509C199.518 256.181 198.998 255.62 198.586 255.828C191.899 259.186 184.68 261.47 177.724 264.204L176.352 264.745C170.855 266.924 165.272 269.295 160.513 272.822C155.208 276.754 151.03 281.638 147.889 287.446C144.794 293.171 142.815 299.579 140.631 305.694L140.047 307.323C139.166 309.766 138.256 312.202 137.214 314.58C136.387 316.468 134.842 318.622 134.14 320.779C132.22 320.446 130.3 320.112 128.377 319.791C86.7398 312.842 44.637 308.76 2.44056 307.565C0.789736 307.519 -0.064164 309.093 0.179082 310.532C4.22854 334.466 7.82719 358.482 11.7756 382.434C13.4992 392.888 15.2571 403.334 17.0562 413.774C17.9675 419.064 19.0211 424.333 19.8843 429.631C20.5812 433.909 21.0871 438.22 22.2834 442.4C23.3565 446.147 25.0031 449.76 27.7075 452.618C30.6228 455.7 34.6917 457.192 38.7875 457.896C49.185 459.685 59.8498 460.415 70.3316 461.607L126.138 467.953C125.322 475.362 125.261 482.656 125.635 490.151L125.849 494.243C126.023 497.534 126.231 500.83 126.704 504.087C127.297 508.173 129.167 511.633 131.922 514.685C134.451 517.488 137.524 519.879 140.513 522.171C143.615 524.55 146.821 526.847 150.469 528.318L150.942 528.506C154.142 529.755 160.145 531.688 164.52 530.982C163.948 533.845 162.841 536.924 163.822 539.757C164.277 541.073 165.999 541.729 167.053 540.61C169.142 538.391 169.305 535.46 169.8 532.566C170.315 529.554 170.759 526.531 171.153 523.501C171.916 517.642 172.509 511.73 172.69 505.822C172.877 499.754 172.805 493.678 172.478 487.617C172.309 484.504 172.101 481.394 171.706 478.301C171.537 476.982 171.365 475.662 171.168 474.346C171.096 473.867 171.016 473.389 170.931 472.913L175.94 473.478C183.62 474.335 191.304 475.109 199.039 475.229C199.955 475.243 200.659 474.826 201.12 474.219C201.611 475.018 202.465 475.589 203.689 475.584C214.49 475.544 224.549 472.014 234.373 467.853C239.325 465.755 244.2 463.484 249.16 461.405C253.789 459.463 258.738 458.078 263.255 455.891L275.126 462.114C275.213 462.421 275.324 462.71 275.443 462.952C276.216 464.529 277.74 465.384 279.296 466.029C280.79 466.648 282.337 466.841 283.844 466.684C292.846 471.4 301.851 476.111 310.862 480.811L319.874 485.506C337.831 494.852 355.717 504.35 373.786 513.475L375.117 514.145C381.358 517.273 388.06 520.444 394.986 522.81C395.11 524.562 395.032 526.266 394.885 528.121L394.85 528.525C394.643 530.717 394.2 533.463 395.959 535.024C396.874 535.835 398.509 535.838 399.131 534.615C400.26 532.396 399.247 528.898 398.889 526.488C398.762 525.631 398.607 524.749 398.378 523.894C406.319 526.257 414.5 527.403 422.58 526.076C430.447 524.785 436.541 519.832 441.453 513.772C446.637 507.378 450.321 499.926 452.297 491.938C454.547 482.848 454.694 473.461 454.641 464.15C454.585 454.236 454.218 444.272 453.011 434.424C454.333 434.113 455.799 433.845 457.135 433.937C457.797 434.995 459.08 435.441 460.24 435.303C462.762 438.083 456.365 440.925 454.321 441.636C453.611 441.883 453.687 443.035 454.506 443.001L455.021 442.976C458.18 442.808 461.443 442.269 463.3 439.335C464.789 436.983 464.341 434.197 462.567 432.28C461.396 421.206 458.594 410.422 455.987 399.62C453.429 389.017 450.584 378.482 447.568 368.001L446.216 363.31C441.467 346.875 436.504 330.307 429.954 314.525C426.684 306.645 422.916 298.909 417.809 292.038C413.048 285.633 407.428 280.152 400.967 275.471C388.923 266.743 374.79 261.47 360.904 256.446L360.283 256.221C353.087 253.619 345.909 250.987 338.795 248.168C332.503 245.675 326.476 242.514 320.214 239.984C320.417 239.615 320.614 239.241 320.803 238.864L320.919 238.961C320.938 238.977 320.959 238.992 320.98 239.006C321.61 239.443 322.537 239.228 323.056 238.739C324.521 237.357 324.025 235.823 323.047 234.39L322.919 234.207C321.723 232.532 320.656 230.761 319.552 229.026L318.861 227.94C317.007 225.04 315.06 222.121 312.589 219.725C311.444 218.614 310.191 217.783 308.864 217.164C308.977 216.924 307.982 216.434 307.7 216.681C303.494 215.142 298.656 215.464 294.071 215.889M128.838 468.259L134.685 468.924C141.118 469.656 147.553 470.363 153.989 471.064L167.969 472.582C168.005 473.379 168.102 474.158 168.119 474.759C168.21 477.861 168.279 480.963 168.343 484.066C168.472 490.284 168.33 496.509 167.921 502.716C167.524 508.73 167.001 514.744 166.189 520.718L166.022 521.912L165.926 522.54C165.263 522.604 164.611 522.919 164.07 523.566C162.887 524.977 158.606 523.605 156.934 523.01C154.184 522.032 151.594 520.38 149.205 518.723C146.871 517.105 144.77 515.218 142.751 513.231L141.099 511.598C139.456 509.966 137.811 508.227 136.804 506.174C135.439 503.389 135.262 499.972 134.862 496.939C134.369 493.209 133.782 489.48 133.161 485.769M298.58 429.107L299.186 429.267C321.218 435.118 343.216 441.142 365.316 446.735C376.252 449.504 387.24 452.071 398.19 454.786L399.963 455.229C408.601 457.411 417.343 460.038 423.958 466.3C424.202 466.531 424.556 466.176 424.327 465.931C417.197 458.346 407.058 455.135 397.323 452.351C395.523 451.836 393.721 451.334 391.921 450.822C405.161 446.104 418.61 442 432.369 439.073C435.912 438.319 439.497 437.765 443.037 437.008C445.506 436.48 447.917 435.717 450.36 435.084L452.282 434.601L452.307 440.671C452.339 449.269 452.324 457.859 451.885 466.456L451.802 468.048C451.29 477.615 450.491 487.38 447.094 496.4C444.334 503.73 439.935 510.636 434.182 515.975C431.271 518.676 428.141 520.779 424.272 521.817C420.68 522.781 416.917 522.894 413.224 522.637C395.511 521.402 379.744 511.785 364.358 503.822C339.192 490.798 314.023 477.78 288.831 464.806C289.512 464.341 290.153 463.805 290.736 463.202C294.115 459.715 295.896 454.941 297.067 450.318C298.313 445.397 299.058 440.123 299.144 435.043M266.525 469.834C266.303 469.715 266.045 469.864 266.035 470.115C265.957 472.038 267.02 473.935 267.815 475.668L267.899 475.853C268.864 477.999 269.921 480.116 271.014 482.2C273.198 486.364 275.469 490.483 277.838 494.544C282.603 502.714 287.898 510.539 294.156 517.653C295.57 519.26 297.895 517.199 296.988 515.469C292.614 507.129 287.515 499.253 282.267 491.447C279.639 487.538 277.013 483.626 274.36 479.735C273.253 478.111 272.132 476.493 270.981 474.9L270.286 473.947M5.23081 312.342C27.3393 313.01 49.4218 314.451 71.4251 316.709C91.8884 318.81 112.277 321.605 132.55 325.091C136.784 325.818 141.013 326.576 145.237 327.364L147.771 327.84C151.996 328.64 157.157 328.971 160.918 331.226C164.883 333.604 165.955 338.574 167.275 342.673C168.826 347.493 170.338 352.327 171.809 357.172C177.65 376.411 182.986 395.817 187.747 415.351C190.11 425.047 192.206 434.797 194.415 444.528C196.378 453.175 198.543 461.723 200.806 470.283C200.527 470.066 200.185 469.901 199.772 469.813C188.538 467.424 177.069 466.386 165.667 465.066L164.564 464.937C152.768 463.551 140.972 462.174 129.169 460.848L51.0254 452.064C46.4167 451.546 41.4795 451.476 36.9945 450.24C29.3692 448.137 27.5819 439.616 26.3025 432.83L26.2639 432.625C22.4067 412.122 19.3363 391.441 15.739 370.885M198.987 446.448C202.021 446.248 206.174 443.471 208.475 443.67C207.267 445.697 206.722 448.008 207.418 450.476C209.356 457.345 218.121 453.791 222.343 451.693C225.804 449.972 229.147 447.865 232.979 447.059C237.32 446.147 240.261 447.872 243.929 449.861C246.942 451.495 250.222 452.668 253.596 453.275C255.39 453.598 257.094 453.633 258.795 453.507C258.898 453.59 259.013 453.667 259.145 453.736L260.044 454.208C255.976 454.394 251.832 455.649 248.046 456.798C244.122 457.988 240.271 459.423 236.439 460.89L232.67 462.338C223.374 465.897 213.75 469.276 203.689 469.246C202.966 469.244 202.373 469.444 201.906 469.771M215.962 424.926C212.964 424.56 210.198 424.952 207.803 426.902C204.915 429.254 202.974 433.154 198.822 433.411C197.611 433.485 197.33 435.187 198.533 435.542C201.624 436.457 204.126 434.785 206.232 432.615L207.648 431.137C209.729 428.983 211.648 427.318 215.18 427.447C218.961 427.585 222.749 428.458 226.506 428.902C230.763 429.405 235.018 429.834 239.287 430.204C239.486 430.221 239.519 429.909 239.334 429.863L234.552 428.674M218.855 412.679L218.36 412.629C214.008 412.207 210.028 412.19 206.141 414.531L205.395 414.981C201.89 417.11 198.076 419.619 195.884 423.066C195.526 423.63 196.118 424.294 196.718 424.15C200.93 423.14 204.01 420.051 207.552 417.739C211.527 415.145 215.634 415.573 220.166 415.975C224.555 416.366 228.941 416.902 233.287 417.633C237.37 418.32 241.466 419.403 245.591 419.749L245.59 419.741C246.061 419.74 246.33 419.032 245.849 418.793C241.664 416.703 236.816 415.715 232.263 414.76M86.638 369.681C87.0587 367.67 84.5836 366.738 83.4364 368.333L83.1924 368.669C80.714 372.063 77.1297 376.322 77.3122 380.638C75.1336 380.686 72.8749 382.009 72.0261 383.974C71.6336 384.883 71.5007 385.96 71.5873 387.075C69.6071 387.229 67.4475 388.529 66.2368 389.794C64.2302 391.891 64.0717 394.855 65.5113 397.306C68.65 402.648 75.5068 404.591 81.2953 405.025L81.5015 405.04C87.4803 405.453 96.0954 405.342 100.195 400.215C104.149 395.269 99.7788 391.265 95.297 389.091C96.4637 388.026 97.0679 386.499 96.4998 384.889C95.5023 382.059 91.9806 380.966 89.9906 378.998C87.5647 376.599 85.9616 373.309 86.6009 369.869M83.3521 374.03C84.0114 376.894 85.6311 379.514 87.8871 381.589C88.7498 382.383 89.6936 383.09 90.6962 383.697L90.8168 383.767C91.7066 384.266 93.8938 385.202 93.7254 386.322C93.5522 387.473 89.9887 389.275 89.0176 389.276C88.7966 389.276 88.6715 389.621 88.8971 389.721C90.6573 390.498 92.1946 390.831 93.9159 390.01C95.0658 391.184 96.1829 392.398 97.2893 393.601C99.246 395.731 98.5765 397.98 96.2645 399.566C92.5495 402.114 86.9025 402.052 82.5681 401.866C78.2054 401.68 73.5421 400.708 70.1343 397.803L69.9859 397.674C68.1338 396.028 66.4422 393.238 69.2785 391.652C70.3891 391.031 71.5891 391.068 72.6437 390.766C73.6306 392.699 75.2313 394.248 77.1847 394.547C78.7634 394.788 79.8506 392.805 78.4145 391.856L78.0919 391.656C76.2887 390.505 74.75 388.733 74.7907 386.426C74.8186 384.824 77.0565 382.801 78.5145 384.306L78.5812 384.378C79.8012 385.753 81.95 384.021 81.1476 382.498L81.1091 382.428M367.889 294.386C367.895 294.041 367.41 293.913 367.241 294.211C364.409 299.19 362.929 305.295 361.42 310.781C359.841 316.528 358.565 322.334 357.419 328.182C355.098 340.024 353.862 351.798 353.778 363.867C353.766 365.591 356.575 366.049 356.85 364.283C358.674 352.543 360.422 340.791 362.26 329.054C363.184 323.151 364.261 317.27 365.291 311.384M339.854 303.059C340.062 302.373 339.063 302.143 338.807 302.771C333.124 316.715 331.199 332.517 334.848 347.227C335.406 349.477 338.704 348.503 338.282 346.281M266.548 290.669C266.577 290.155 265.909 290.074 265.657 290.428C262.965 294.221 261.847 299.299 257.123 301.259C254.764 302.238 252.11 302.067 250.026 303.72C248.633 304.826 247.564 306.571 248.61 308.245C248.947 308.786 249.891 309.057 250.349 308.469C251.017 307.613 251.371 306.587 252.278 305.946C253.559 305.04 255.285 304.984 256.753 304.559C258.651 304.008 260.325 303.046 261.695 301.615M221.56 227.416C221.282 227.275 221.016 227.366 220.839 227.605C220.585 227.947 220.616 228.28 220.927 228.514C220.512 229.361 220.022 231.483 219.952 231.792C219.669 233.044 219.367 234.289 219.051 235.533C218.415 238.042 217.857 240.57 217.22 243.079C216.544 245.739 215.74 248.371 214.844 250.965C214.786 251.133 214.723 251.304 214.656 251.478L214.554 251.741L214.529 251.701C214.347 251.414 213.968 251.615 214.013 251.919C214.054 252.195 214.111 252.471 214.158 252.748L214.064 252.996C213.478 254.572 213.077 256.232 214.152 257.623C214.554 258.143 214.996 258.451 215.548 258.542C216.432 261.455 217.541 264.314 218.729 267.059L219.077 267.861C220.823 271.867 222.686 275.82 225.468 279.231C228.504 282.954 232.681 285.497 235.326 289.577C236.557 291.474 237.413 293.47 238.108 295.613L238.369 296.427C238.863 297.943 239.432 299.412 240.855 300.301C241.309 300.585 241.989 300.494 242.355 300.108C245.272 297.023 242.218 291.263 240.459 288.276C238.014 284.123 234.474 281.466 230.93 278.333C227.11 274.955 224.673 270.437 222.317 265.986C220.873 263.26 219.479 260.474 218.012 257.735C219.545 256.381 220.036 253.691 220.555 251.821L220.602 251.653C221.461 248.659 222.143 245.586 222.574 242.501C222.988 239.534 223.161 236.61 223.052 233.626L223.02 232.866M215.86 241.537C216.199 241.073 215.638 240.548 215.173 240.645C212.348 241.229 209.585 242.938 207.05 244.32L206.779 244.467C204.754 245.558 202.718 246.895 201.655 249.014C200.499 251.318 200.594 253.971 200.752 256.475L200.767 256.709C200.96 259.712 200.991 262.831 201.627 265.779C201.952 267.288 203.319 267.713 204.488 267.357C205.879 271.746 209.786 274.981 212.64 278.445C216.279 282.861 215.594 288.823 215.214 294.142C215.06 296.296 217.74 296.908 219.12 295.759L222.301 293.118C222.831 292.677 223.36 292.236 223.887 291.792C224.339 291.412 224.787 291.029 225.231 290.642L225.895 290.056C226.189 289.793 227.487 288.344 227.866 288.284C228.785 288.138 230.969 290.559 231.716 291.318L231.811 291.413C233.217 292.792 234.488 294.275 235.672 295.848C235.89 296.137 236.316 295.897 236.16 295.564C235.099 293.292 233.866 291.121 232.401 289.089L232.105 288.684C231.131 287.372 229.823 285.054 228.103 284.667C226.003 284.194 223.906 286.299 222.378 287.467L222.282 287.54C221.555 288.085 220.836 288.64 220.119 289.199C220.194 285.239 219.693 281.237 217.648 277.825C216.206 275.418 214.045 273.635 212.195 271.567C210.137 269.264 209.062 266.434 207.198 264.035C206.958 263.727 206.628 263.561 206.269 263.508C206.198 261.579 205.914 259.632 205.694 257.725L205.631 257.154C205.409 255.081 204.884 252.55 205.899 250.609C206.858 248.776 209.058 247.482 210.688 246.238L212.018 245.207M307.559 219.624C308.409 220.116 309.204 220.728 309.926 221.492C312.197 223.9 313.82 226.896 315.4 229.779C316.251 231.331 317.071 232.9 317.928 234.449C318.301 235.123 318.685 235.789 319.073 236.455C319.252 236.761 319.785 237.371 320.049 237.746C319.756 238.157 319.452 238.562 319.143 238.962C319.025 239.115 310.879 247.984 308.04 251.455C303.692 256.772 299.805 262.388 296.483 268.399C293.229 274.286 290.752 280.518 287.739 286.519C286.23 289.523 284.545 292.506 282.398 295.106C282.315 295.207 282.227 295.303 282.143 295.403C281.323 293.19 279.223 290.82 278.191 289.46L278.095 289.331C275.756 286.179 273.285 283.122 270.761 280.117C268.455 277.373 266.091 274.689 263.67 272.048L262.759 271.06C261.072 269.239 258.929 266.513 256.46 265.212C256.724 264.74 257.031 264.274 257.383 263.814C259.697 260.792 262.968 258.598 266.195 256.619L268.288 255.347C276.177 250.541 283.944 245.513 290.793 239.269C294.417 235.965 297.991 232.504 301.036 228.651L302.114 227.288M294.395 217.245C298.089 217.555 302.079 217.481 305.493 218.684C302.458 221.552 299.573 224.649 296.609 227.565C296.345 225.593 295.806 223.645 295.349 221.721" fill="black"/>
<path fill-rule="evenodd" clip-rule="evenodd" d="M235.588 235.939C245.872 235.999 254.613 233.083 261.282 228.258C269.604 225.291 279.642 220.716 285.74 215.914C288.118 216.52 290.964 213.995 292.784 212.662C304.1 204.215 312.983 191.852 315.615 179.467C319.679 184.594 325.461 184.807 331 182.259C342.611 175.677 342.177 161.819 337.997 151.465C346.785 131.756 352.875 79.7281 339.46 58.7303C336.717 55.5886 332.69 53.7093 329.791 50.4875C327.211 47.6736 324.757 44.7954 321.756 42.5688C312.598 35.6018 296.824 31.8923 286.948 30.1478C245.72 21.2386 214.044 37.2519 176.699 50.7593C178.848 56.1314 181.821 61.0306 185.229 65.5987C175.958 69.0576 180.216 76.8346 187.409 80.777L191.691 78.6967C185.016 102.568 169.654 161.93 176.282 180.993C181.567 210.734 204.764 236.155 235.588 235.939" fill="white"/>
<path fill-rule="evenodd" clip-rule="evenodd" d="M229.631 238.5C242.984 239.87 258.848 236.715 267.75 225.873C268.016 225.548 268.132 225.181 268.139 224.826C268.147 224.431 268.014 224.05 267.786 223.754C267.545 223.442 267.202 223.225 266.81 223.154C266.479 223.095 266.102 223.133 265.713 223.351L264.895 223.806C258.816 227.162 252.502 230.025 245.612 231.25C238.518 232.511 231.295 232.37 224.264 230.768C211.457 227.852 201.093 220.412 193.464 210.601C184.951 199.654 179.839 185.757 178.536 171.859C176.957 155.017 180.62 138.277 184.409 121.969C188.391 104.833 192.744 87.7852 197.8 70.935C197.952 70.4278 197.993 69.953 197.949 69.5157C199.441 68.9317 201.028 69.0939 202.607 69.627C205.494 70.601 208.369 72.7975 210.767 74.6107C211.636 75.2673 212.444 75.8777 213.17 76.3744C216.143 78.4081 219.394 79.8715 223.029 80.1017C226.809 80.3404 230.515 79.1661 233.948 77.6965C235.693 76.9498 237.409 76.1753 239.118 75.4039C243.985 73.2073 248.795 71.0324 254.051 69.6189C261.094 67.7244 268.366 66.7913 275.659 66.8581C288.677 66.9771 301.734 70.3262 309.712 81.3305C312.944 85.7882 315.051 90.9116 313.408 96.4131C312.514 99.4059 310.827 102.123 308.986 104.622L308.354 105.473C307.344 106.844 306.467 108.21 306.202 109.665C305.981 110.883 306.153 112.172 307.024 113.585C307.572 114.474 308.269 115.272 308.97 116.067C309.476 116.64 309.983 117.212 310.419 117.829C311.299 119.071 312.077 120.409 312.688 121.805C313.884 124.537 314.391 127.475 314.497 130.439C314.625 134.015 314.122 137.512 313.624 141.015C313.27 143.499 312.917 145.985 312.774 148.502C312.749 148.941 312.884 149.268 313.072 149.51C313.302 149.806 313.638 149.993 314.02 150.045C314.136 150.06 314.257 150.063 314.377 150.052C314.318 150.294 314.266 150.538 314.22 150.782C314.462 150.471 314.719 150.17 314.99 149.878C315.008 149.87 315.025 149.861 315.042 149.851C315.322 149.698 315.559 149.464 315.708 149.162C316.092 148.805 316.499 148.467 316.926 148.148C319.147 146.492 321.741 145.51 324.343 145.477C326.851 145.446 329.366 146.3 331.299 148.103C335.141 151.686 336.267 157.535 336.307 162.557C336.348 167.684 335.161 173.837 330.689 177.02C328.895 178.296 326.704 179.064 324.497 179.086C322.667 179.104 320.916 178.457 319.193 177.841C318.661 177.651 318.132 177.462 317.604 177.29C317.005 177.095 316.458 177.107 315.982 177.25C315.445 177.411 314.989 177.742 314.649 178.185C314.31 178.626 314.088 179.178 314.019 179.756C313.952 180.316 314.029 180.897 314.266 181.421C314.326 181.553 314.388 181.681 314.454 181.806L313.47 183.423C309.704 189.597 305.872 195.658 300.847 200.964C297.962 204.01 294.905 206.885 291.551 209.401L291.068 209.76C290.778 209.972 290.457 210.234 290.115 210.514C289.137 211.313 287.964 212.386 286.87 212.428C286.545 212.441 286.262 212.4 286.004 212.367C285.38 212.285 284.857 212.261 284.344 212.47C283.93 212.639 283.502 212.953 283.061 213.603C282.763 214.043 282.61 214.595 282.61 215.155C282.61 215.717 282.765 216.279 283.04 216.724C283.61 217.644 284.299 218.214 285.047 218.538C285.881 218.899 286.803 218.954 287.76 218.776C290.12 218.336 292.732 216.382 294.394 215.107L294.715 214.861C298.398 212.053 301.888 208.947 304.957 205.472C310.182 199.555 314.875 192.583 317.286 184.964C318.985 186.08 321.084 186.609 323.279 186.693C326.476 186.814 329.86 185.992 332.354 184.81C337.85 182.205 341.188 177.278 342.752 171.612C344.569 165.032 343.979 157.467 341.679 151.556C341.612 151.384 341.542 151.213 341.471 151.039C348.551 133.109 350.728 113.199 350.122 94.0642C349.838 85.1075 349.228 75.7105 347.114 66.9752C346.167 63.06 344.52 59.3315 341.892 56.2492C340.393 54.4915 338.554 53.1231 336.707 51.7585C335.107 50.5766 333.501 49.3973 332.149 47.9215L331.51 47.2208C331.372 47.0684 331.233 46.9162 331.096 46.7643C328.762 44.1932 326.49 41.6984 323.658 39.5899C320.373 37.1452 316.749 35.2316 312.983 33.6424C304.869 30.22 296.137 28.1679 287.499 26.5803C268.81 23.1463 249.626 22.9769 231.166 27.8039C222.584 30.0479 214.254 33.1194 205.939 36.1873C205.167 36.4722 204.395 36.757 203.623 37.0411C197.161 39.4192 190.696 41.7872 184.231 44.1552C181.226 45.2558 178.221 46.3563 175.217 47.4579C174.565 47.697 173.927 48.212 173.563 48.8519C173.209 49.4762 173.103 50.2042 173.389 50.9292C175.233 55.5979 177.559 59.978 180.39 64.0683C179.406 64.7372 178.569 65.6268 177.936 66.668C177.135 67.985 176.66 69.544 176.628 71.198C176.52 76.7372 181.563 80.4923 185.747 83.2081C186.137 83.4615 186.523 83.611 186.896 83.6797C182.842 99.174 178.961 114.721 175.663 130.391L175.437 131.477C172.04 147.876 169.848 164.612 173.061 181.23C175.827 195.539 182.253 209.349 192.296 220.009C202.137 230.457 215.343 237.034 229.631 238.5ZM317.557 144.16C319.305 138.614 320.232 132.579 319.563 126.958C319.142 123.424 318.079 120.022 316.348 116.907C315.357 115.123 314.148 113.472 312.83 111.916L312.375 111.394C312.145 111.127 311.916 110.882 311.845 110.574C311.803 110.396 311.845 110.2 311.954 109.967C312.195 109.45 312.642 108.952 313.061 108.465C313.327 108.156 313.587 107.853 313.805 107.558C317.637 102.373 320.495 96.2001 319.566 89.6251C318.66 83.2103 314.454 77.2309 309.976 72.7246C300.116 62.802 284.83 60.5219 271.439 61.0692C263.643 61.3875 255.861 62.7607 248.437 65.1595C244.776 66.3426 241.197 67.7835 237.719 69.4349L236.949 69.8045C236.533 70.0057 236.118 70.2092 235.702 70.4129C232.984 71.7455 230.255 73.0912 227.303 73.8157C221.539 75.2304 217.63 72.2509 213.52 69.2461C212.112 68.2163 210.682 67.1723 209.162 66.2561L208.849 66.0712C206.107 64.4825 202.828 63.4134 199.677 63.4613C196.941 63.503 194.3 64.3763 192.151 66.4402C191.71 66.8643 191.456 67.3269 191.337 67.7874C191.099 68.1206 190.907 68.518 190.782 68.9875C190.012 71.8753 189.245 74.7652 188.481 77.656L187.856 77.2537C186.006 76.0523 183.994 74.6793 183.085 72.6695C182.736 71.8959 182.785 70.6071 183.226 69.6595C183.38 69.3285 183.584 69.0341 183.865 68.8503C184.07 68.7167 184.317 68.6539 184.604 68.677C185.301 68.7668 185.941 68.6648 186.484 68.4354C187.111 68.1709 187.61 67.7357 187.934 67.2111C188.266 66.6741 188.417 66.0426 188.336 65.3878C188.266 64.8247 188.024 64.2367 187.544 63.6842C184.387 60.0471 181.728 56.035 179.708 51.6802L193.073 46.7376C197.839 44.9762 202.605 43.2171 207.374 41.4647L209.984 40.5059C218.655 37.3271 227.376 34.2205 236.393 32.1739C254.313 28.1069 273 29.0628 290.871 32.891L291.951 33.1242C299.45 34.7586 307.05 36.7361 313.933 40.1735C317.311 41.8606 320.523 43.9122 323.281 46.5042C324.499 47.6488 325.6 48.902 326.702 50.1536C328.245 51.9075 329.791 53.6567 331.626 55.1342L333.33 56.4978C335.865 58.5391 338.151 60.528 339.581 63.6938C341.076 67.0035 341.79 70.66 342.372 74.2224C343.841 83.1967 344.421 92.3147 344.365 101.405C344.272 116.668 341.952 131.62 339.021 146.52C336.67 143.156 333.366 140.549 329.127 139.992C326.363 139.63 323.622 140.145 321.246 141.367C319.873 142.073 318.621 143.015 317.557 144.16V144.16ZM321.998 162.284C325.094 161.085 328.345 160.692 331.62 161.265C331.964 161.325 332.291 161.254 332.566 161.094C332.845 160.932 333.065 160.676 333.184 160.393C333.322 160.066 333.329 159.712 333.207 159.398C333.102 159.125 332.9 158.86 332.53 158.683C328.983 156.992 325.041 156.245 321.128 156.776L320.742 156.831C318.741 157.128 315.928 157.752 313.819 158.98C312.162 159.945 310.949 161.276 310.647 163.014C310.49 163.919 310.714 164.865 311.237 165.55C311.742 166.213 312.514 166.655 313.513 166.626C315.275 166.576 316.319 165.832 317.574 164.867C317.727 164.75 317.883 164.631 318.045 164.509C319.258 163.602 320.584 162.831 321.998 162.284Z" fill="black"/>
<path fill-rule="evenodd" clip-rule="evenodd" d="M253.717 185.84C248.043 179.25 238.487 178.791 230.571 180.439C225.491 181.496 220.545 183.258 215.386 183.911C212.976 184.216 210.54 184.307 208.113 184.263C205.729 184.219 203.341 183.738 200.965 183.828C200.6 183.841 200.461 184.32 200.778 184.515C204.037 186.516 208.428 187.158 212.279 187.55C212.267 187.834 212.249 188.112 212.21 188.348C212.105 188.976 212.009 189.601 211.932 190.233C211.757 191.66 211.561 193.082 211.366 194.506C210.982 197.309 210.861 200.2 210.185 202.954L210.067 203.412C209.91 203.991 209.874 204.513 209.927 204.983L209.77 204.912L209.276 204.673L208.951 204.52C207.768 203.972 206.639 203.572 205.248 203.706C204.188 203.807 203.299 204.529 203.293 205.659C203.266 210.732 210.107 212.364 214.02 213.335L215.167 213.618C220.148 214.832 225.233 215.896 230.355 216.151C238.576 216.559 247.813 214.292 253.19 207.628C258.208 201.41 259.127 192.123 253.717 185.84ZM216.387 207.156C217.249 199.518 226.64 199.098 229.342 203.941C230.54 197.19 248.275 203.358 246.888 204.7C241.632 209.788 233.656 210.246 226.799 209.305C223.307 208.825 219.812 208.045 216.387 207.156ZM226.808 187.136L229.169 186.796L230.099 186.668C235.952 185.885 242.535 185.48 247.347 189.231C249.104 190.6 250.092 192.385 250.462 194.304C245.908 193.629 241.338 193.114 236.754 192.686L235.504 192.571C232.636 192.313 229.769 192.04 226.904 191.755L224.868 191.549L222.833 191.337C222.116 191.262 217.289 191.016 216.381 191.181C216.284 190.366 216.158 188.602 215.953 187.809C219.383 187.925 222.797 187.671 226.207 187.218L226.808 187.136ZM215.94 152.995C212.442 155.121 207.111 160.077 210.874 165.347C215.305 169.994 221.684 164.666 224.827 162.257C227.742 160.389 231.016 165.192 228.312 167.373C205.598 184.181 196.381 153.551 214.171 150.496C216.13 150.159 216.857 152.337 215.94 152.995ZM209.679 161.95L209.511 161.859L209.454 161.824C209.356 161.761 209.419 161.768 209.642 161.845L209.81 161.905V162.024C209.767 161.997 209.721 161.977 209.679 161.95ZM254.488 143.065L254.489 142.96C254.482 140.007 252.761 133.264 248.508 133.264C245.851 133.264 244.237 137.853 243.958 142.584L243.948 142.777C243.825 145.718 244.633 152.146 248.508 152.146C252.424 152.146 254.448 146.057 254.488 143.065V143.065ZM191.867 142.138L191.866 142.034C191.873 139.081 193.594 132.338 197.847 132.338C200.438 132.338 202.036 136.701 202.373 141.303L202.397 141.658C202.564 144.499 201.809 151.22 197.847 151.22C193.931 151.22 191.907 145.131 191.867 142.138V142.138ZM252.061 113.13C248.59 112.602 243.993 113.604 242.375 117.132C241.654 118.704 242.508 120.442 244.325 120.529C248.718 120.74 252.658 119.762 256.514 122.617C258.173 123.846 259.568 125.548 260.739 127.245L261.182 127.891L261.549 128.423C262.344 129.591 263.096 130.861 262.979 132.27C262.944 132.687 263.371 133.083 263.776 133.067C266.303 132.963 266.575 129.796 266.243 127.894C265.625 124.364 263.916 121.051 261.547 118.382C259.059 115.579 255.774 113.694 252.061 113.13ZM204.251 117.414C201.857 115.876 198.796 115.285 195.992 115.511C190.463 115.956 181.187 120.654 182.408 127.404C182.785 129.486 185.682 130.584 187.389 129.429C189.224 128.187 189.67 126.258 191.036 124.635C192.126 123.339 193.507 122.401 194.986 121.602C196.444 120.814 198.13 120.337 199.785 120.163L200.06 120.136C201.056 120.052 206.084 120.074 205.346 121.95C205.201 122.318 205.748 122.608 205.999 122.331C207.54 120.626 205.795 118.406 204.251 117.414Z" fill="black"/>
</svg>
